<svg width="20" height="20" viewBox="0 0 20 20" fill="none" xmlns="http://www.w3.org/2000/svg">
<path d="M1.33334 16.5001C1.33334 15.3508 1.78988 14.2486 2.60254 13.436C3.4152 12.6233 4.5174 12.1667 5.66667 12.1667H14.3333C15.4826 12.1667 16.5848 12.6233 17.3975 13.436C18.2101 14.2486 18.6667 15.3508 18.6667 16.5001C18.6667 17.0747 18.4384 17.6258 18.0321 18.0321C17.6257 18.4385 17.0746 18.6667 16.5 18.6667H3.5C2.92537 18.6667 2.37427 18.4385 1.96794 18.0321C1.56161 17.6258 1.33334 17.0747 1.33334 16.5001Z" stroke="#757575" stroke-width="2.5" stroke-linejoin="round"/>
<path d="M10 7.83337C11.7949 7.83337 13.25 6.3783 13.25 4.58337C13.25 2.78845 11.7949 1.33337 10 1.33337C8.20507 1.33337 6.75 2.78845 6.75 4.58337C6.75 6.3783 8.20507 7.83337 10 7.83337Z" stroke="#757575" stroke-width="2.5"/>
</svg>
