<svg width="16" height="21" viewBox="0 0 16 21" fill="none" xmlns="http://www.w3.org/2000/svg">
<path d="M0 17.5V15.5H2V8.5C2 7.11667 2.41667 5.88733 3.25 4.812C4.08333 3.73733 5.16667 3.03333 6.5 2.7V0.5H9.5V2.7C10.8333 3.03333 11.9167 3.73733 12.75 4.812C13.5833 5.88733 14 7.11667 14 8.5V15.5H16V17.5H0ZM8 20.5C7.45 20.5 6.97933 20.3043 6.588 19.913C6.196 19.521 6 19.05 6 18.5H10C10 19.05 9.80433 19.521 9.413 19.913C9.021 20.3043 8.55 20.5 8 20.5ZM4 15.5H12V8.5C12 7.4 11.6083 6.45833 10.825 5.675C10.0417 4.89167 9.1 4.5 8 4.5C6.9 4.5 5.95833 4.89167 5.175 5.675C4.39167 6.45833 4 7.4 4 8.5V15.5Z" fill="#757575"/>
</svg>
