<svg width="22" height="20" viewBox="0 0 22 20" fill="none" xmlns="http://www.w3.org/2000/svg">
<path d="M17.5 7.74996H14.7917C14.1958 7.74996 13.7083 8.23746 13.7083 8.83329V13.1666C13.7083 13.7625 14.1958 14.25 14.7917 14.25H17.5C18.0958 14.25 18.5833 13.7625 18.5833 13.1666V8.83329C18.5833 8.23746 18.0958 7.74996 17.5 7.74996ZM16.9583 12.625H15.3333V9.37496H16.9583V12.625ZM8.29166 14.25H3.41666V11.5416C3.41666 10.9458 3.90416 10.4583 4.5 10.4583H6.66666V9.37496H3.41666V7.74996H7.20833C7.80416 7.74996 8.29166 8.23746 8.29166 8.83329V10.4583C8.29166 11.0541 7.80416 11.5416 7.20833 11.5416H5.04166V12.625H8.29166V14.25ZM11.8125 9.91663H10.1875V8.29163H11.8125V9.91663ZM11.8125 13.7083H10.1875V12.0833H11.8125V13.7083ZM21.8333 4.49996V17.5C21.8333 18.6916 20.8583 19.6666 19.6667 19.6666H2.33333C1.14166 19.6666 0.166664 18.6916 0.166664 17.5V4.49996C0.166664 3.30829 1.14166 2.33329 2.33333 2.33329H5.58333V0.166626H7.75V2.33329H14.25V0.166626H16.4167V2.33329H19.6667C20.8583 2.33329 21.8333 3.30829 21.8333 4.49996ZM19.6667 17.5V4.49996H11.8125V6.12496H10.1875V4.49996H2.33333V17.5H10.1875V15.875H11.8125V17.5H19.6667Z" fill="#757575"/>
</svg>
