<svg width="20" height="20" viewBox="0 0 20 20" fill="none" xmlns="http://www.w3.org/2000/svg">
<path d="M10 0C15.523 0 20 4.477 20 10C20 15.523 15.523 20 10 20C4.477 20 0 15.523 0 10C0 4.477 4.477 0 10 0ZM10.366 11.366L6.897 17.376C8.30502 17.965 9.85136 18.1418 11.356 17.886C11.0903 16.0174 11.3623 14.1117 12.14 12.392L10.366 11.366ZM13.884 13.397C13.3652 14.6253 13.1633 15.9643 13.297 17.291C14.5111 16.7408 15.569 15.8967 16.375 14.835L13.884 13.397ZM6.859 9.342C5.7586 10.8756 4.24469 12.0645 2.494 12.77C3.02274 14.2016 3.94943 15.4523 5.165 16.375L8.634 10.366L6.859 9.342ZM17.962 9.212L17.704 9.332C16.5953 9.87964 15.6297 10.6785 14.884 11.665L17.376 13.104C17.8936 11.8757 18.095 10.5382 17.962 9.212ZM2 10C2 10.266 2.013 10.53 2.038 10.789C3.2535 10.242 4.31195 9.3981 5.116 8.335L2.624 6.897C2.21077 7.87926 1.9986 8.93436 2 10ZM14.835 3.626L11.366 9.634L13.141 10.659C14.2414 9.1246 15.7557 7.93495 17.507 7.229C17.0153 5.90124 16.1807 4.72743 15.088 3.827L14.835 3.626ZM10 2C9.537 2 9.084 2.04 8.643 2.115C8.90924 3.98363 8.63728 5.88943 7.859 7.609L9.634 8.634L13.103 2.624C12.1207 2.21077 11.0656 1.9986 10 2ZM6.703 2.71L6.512 2.798C5.3775 3.34946 4.38881 4.16035 3.626 5.165L6.116 6.603C6.63472 5.375 6.83657 4.03635 6.703 2.71Z" fill="#757575"/>
</svg>
