<svg width="17" height="21" viewBox="0 0 17 21" fill="none" xmlns="http://www.w3.org/2000/svg">
<path d="M2.875 17.1938L8.5 14.775L14.125 17.1938V2.625H2.875V17.1938ZM2.2 19.95C1.825 20.1 1.46875 20.067 1.13125 19.851C0.79375 19.635 0.625 19.3215 0.625 18.9105V2.625C0.625 2.00625 0.8455 1.47638 1.2865 1.03538C1.7275 0.594377 2.257 0.374252 2.875 0.375002H14.125C14.7437 0.375002 15.2736 0.595502 15.7146 1.0365C16.1556 1.4775 16.3757 2.007 16.375 2.625V18.9094C16.375 19.3219 16.2062 19.6361 15.8687 19.8521C15.5312 20.0681 15.175 20.1008 14.8 19.95L8.5 17.25L2.2 19.95Z" fill="#757575"/>
</svg>
