<svg width="21" height="24" viewBox="0 0 21 24" fill="none" xmlns="http://www.w3.org/2000/svg">
<path d="M2.74999 20.5417H6.62499V12.7917H14.375V20.5417H18.25V8.91671L10.5 3.10421L2.74999 8.91671V20.5417ZM2.74999 23.125C2.03958 23.125 1.4312 22.8719 0.924867 22.3655C0.418534 21.8592 0.165798 21.2513 0.166659 20.5417V8.91671C0.166659 8.50768 0.258367 8.12018 0.441783 7.75421C0.6252 7.38824 0.877937 7.08685 1.19999 6.85004L8.94999 1.03754C9.1868 0.865319 9.43437 0.736152 9.6927 0.650041C9.95103 0.563929 10.2201 0.520874 10.5 0.520874C10.7799 0.520874 11.049 0.563929 11.3073 0.650041C11.5656 0.736152 11.8132 0.865319 12.05 1.03754L19.8 6.85004C20.1229 7.08685 20.3761 7.38824 20.5595 7.75421C20.7429 8.12018 20.8342 8.50768 20.8333 8.91671V20.5417C20.8333 21.2521 20.5802 21.8605 20.0738 22.3668C19.5675 22.8732 18.9595 23.1259 18.25 23.125H11.7917V15.375H9.20833V23.125H2.74999Z" fill="#FF4242"/>
</svg>
